<svg width="34" height="31" viewBox="0 0 34 31" fill="none" xmlns="http://www.w3.org/2000/svg">
<rect x="14.2998" y="0.780029" width="2.56" height="11.52" rx="1.28" fill="white"/>
<rect x="14.2998" y="18.7" width="2.56" height="11.52" rx="1.28" fill="white"/>
<rect x="14.2998" y="3.34003" width="2.56" height="19.2" rx="1.28" transform="rotate(-90 14.2998 3.34003)" fill="white"/>
<path d="M15.5798 30.22C14.8729 30.22 14.2998 29.647 14.2998 28.94V28.94C14.2998 28.2331 14.8729 27.66 15.5798 27.66H16.8598H32.2198C32.9267 27.66 33.4998 28.2331 33.4998 28.94V28.94C33.4998 29.647 32.9267 30.22 32.2198 30.22H15.5798Z" fill="white"/>
<rect x="30.9399" y="0.780029" width="2.56" height="29.44" rx="1.28" fill="white"/>
<path d="M1.5 14.54C0.969807 14.54 0.54 14.9698 0.54 15.5C0.54 16.0302 0.969807 16.46 1.5 16.46L1.5 14.54ZM27.7788 16.1788C28.1537 15.8039 28.1537 15.1961 27.7788 14.8212L21.6694 8.71178C21.2945 8.33687 20.6867 8.33687 20.3118 8.71178C19.9369 9.08668 19.9369 9.69452 20.3118 10.0694L25.7424 15.5L20.3118 20.9306C19.9369 21.3055 19.9369 21.9133 20.3118 22.2882C20.6867 22.6631 21.2945 22.6631 21.6694 22.2882L27.7788 16.1788ZM1.5 16.46L27.1 16.46V14.54L1.5 14.54L1.5 16.46Z" fill="white"/>
</svg>
