<svg width="32" height="32" viewBox="0 0 32 32" fill="none" xmlns="http://www.w3.org/2000/svg">
<rect x="1" y="1" width="30" height="30" rx="1" stroke="white" stroke-width="2"/>
<path d="M12.001 19.3022C11.105 19.3022 10.3876 19.0382 9.84897 18.5102C9.3103 17.9769 9.04097 17.2409 9.04097 16.3022C9.04097 15.3582 9.30497 14.6222 9.83297 14.0942C10.361 13.5662 11.1023 13.3022 12.057 13.3022C12.4516 13.3022 12.833 13.3342 13.201 13.3982C13.329 13.4196 13.433 13.4836 13.513 13.5902C13.5983 13.6916 13.641 13.8089 13.641 13.9422V14.1582C13.641 14.2702 13.5956 14.3609 13.505 14.4302C13.4143 14.4996 13.313 14.5209 13.201 14.4942C12.8703 14.4196 12.5423 14.3822 12.217 14.3822C11.0223 14.3822 10.425 15.0222 10.425 16.3022C10.425 16.9422 10.5663 17.4222 10.849 17.7422C11.137 18.0622 11.5476 18.2222 12.081 18.2222C12.2463 18.2222 12.4143 18.2009 12.585 18.1582C12.633 18.1476 12.657 18.1182 12.657 18.0702V16.7662C12.657 16.7236 12.633 16.7022 12.585 16.7022H11.841C11.7183 16.7022 11.6116 16.6569 11.521 16.5662C11.4303 16.4756 11.385 16.3689 11.385 16.2462V16.1262C11.385 16.0036 11.4303 15.8969 11.521 15.8062C11.6116 15.7156 11.7183 15.6702 11.841 15.6702H13.497C13.6196 15.6702 13.7236 15.7156 13.809 15.8062C13.8996 15.8969 13.945 16.0036 13.945 16.1262V18.5182C13.945 18.6569 13.905 18.7822 13.825 18.8942C13.745 19.0009 13.641 19.0729 13.513 19.1102C13.033 19.2382 12.529 19.3022 12.001 19.3022ZM15.6877 19.2222C15.5651 19.2222 15.4584 19.1769 15.3677 19.0862C15.2824 18.9956 15.2397 18.8889 15.2397 18.7662V13.8382C15.2397 13.7156 15.2824 13.6089 15.3677 13.5182C15.4584 13.4276 15.5651 13.3822 15.6877 13.3822H16.2797C16.4024 13.3822 16.5064 13.4276 16.5917 13.5182C16.6824 13.6089 16.7277 13.7156 16.7277 13.8382V18.7662C16.7277 18.8889 16.6824 18.9956 16.5917 19.0862C16.5064 19.1769 16.4024 19.2222 16.2797 19.2222H15.6877ZM18.521 19.2222C18.3984 19.2222 18.2917 19.1769 18.201 19.0862C18.1104 18.9956 18.065 18.8889 18.065 18.7662V13.8382C18.065 13.7156 18.1104 13.6089 18.201 13.5182C18.2917 13.4276 18.3984 13.3822 18.521 13.3822H21.265C21.3877 13.3822 21.4944 13.4276 21.585 13.5182C21.6757 13.6089 21.721 13.7156 21.721 13.8382V14.0222C21.721 14.1449 21.6757 14.2516 21.585 14.3422C21.4944 14.4329 21.3877 14.4782 21.265 14.4782H19.497C19.449 14.4782 19.425 14.4996 19.425 14.5422V15.7342C19.425 15.7822 19.449 15.8062 19.497 15.8062H21.105C21.2277 15.8062 21.3344 15.8516 21.425 15.9422C21.5157 16.0276 21.561 16.1316 21.561 16.2542V16.3822C21.561 16.5049 21.5157 16.6116 21.425 16.7022C21.3344 16.7876 21.2277 16.8302 21.105 16.8302H19.497C19.449 16.8302 19.425 16.8542 19.425 16.9022V18.7662C19.425 18.8889 19.3797 18.9956 19.289 19.0862C19.2037 19.1769 19.0997 19.2222 18.977 19.2222H18.521Z" fill="white"/>
</svg>
