<svg width="32" height="32" viewBox="0 0 32 32" fill="none" xmlns="http://www.w3.org/2000/svg">
<path d="M16 21.6371V24.6" stroke="white" stroke-width="2.84444" stroke-linecap="round"/>
<mask id="path-2-inside-1_134_94" fill="white">
<path d="M9 14.3333C8.44772 14.3333 7.99246 14.7835 8.07418 15.3297C8.167 15.9501 8.34636 16.5585 8.60896 17.1397C9.011 18.0294 9.60028 18.8378 10.3431 19.5188C11.086 20.1998 11.9679 20.7399 12.9385 21.1085C13.9091 21.477 14.9494 21.6667 16 21.6667C17.0506 21.6667 18.0909 21.477 19.0615 21.1085C20.0321 20.7399 20.914 20.1998 21.6569 19.5188C22.3997 18.8378 22.989 18.0294 23.391 17.1397C23.6536 16.5585 23.833 15.9501 23.9258 15.3297C24.0075 14.7835 23.5523 14.3333 23 14.3333V14.3333C22.4477 14.3333 22.0098 14.7853 21.9013 15.3268C21.8252 15.7069 21.7054 16.0794 21.5433 16.4381C21.2417 17.1054 20.7998 17.7117 20.2426 18.2224C19.6855 18.7332 19.0241 19.1383 18.2961 19.4147C17.5681 19.6911 16.7879 19.8333 16 19.8333C15.2121 19.8333 14.4319 19.6911 13.7039 19.4147C12.9759 19.1383 12.3145 18.7332 11.7574 18.2224C11.2002 17.7117 10.7583 17.1054 10.4567 16.4381C10.2946 16.0794 10.1748 15.7069 10.0987 15.3268C9.9902 14.7853 9.55228 14.3333 9 14.3333V14.3333Z"/>
</mask>
<path d="M9 14.3333C8.44772 14.3333 7.99246 14.7835 8.07418 15.3297C8.167 15.9501 8.34636 16.5585 8.60896 17.1397C9.011 18.0294 9.60028 18.8378 10.3431 19.5188C11.086 20.1998 11.9679 20.7399 12.9385 21.1085C13.9091 21.477 14.9494 21.6667 16 21.6667C17.0506 21.6667 18.0909 21.477 19.0615 21.1085C20.0321 20.7399 20.914 20.1998 21.6569 19.5188C22.3997 18.8378 22.989 18.0294 23.391 17.1397C23.6536 16.5585 23.833 15.9501 23.9258 15.3297C24.0075 14.7835 23.5523 14.3333 23 14.3333V14.3333C22.4477 14.3333 22.0098 14.7853 21.9013 15.3268C21.8252 15.7069 21.7054 16.0794 21.5433 16.4381C21.2417 17.1054 20.7998 17.7117 20.2426 18.2224C19.6855 18.7332 19.0241 19.1383 18.2961 19.4147C17.5681 19.6911 16.7879 19.8333 16 19.8333C15.2121 19.8333 14.4319 19.6911 13.7039 19.4147C12.9759 19.1383 12.3145 18.7332 11.7574 18.2224C11.2002 17.7117 10.7583 17.1054 10.4567 16.4381C10.2946 16.0794 10.1748 15.7069 10.0987 15.3268C9.9902 14.7853 9.55228 14.3333 9 14.3333V14.3333Z" stroke="white" stroke-width="2.84444" mask="url(#path-2-inside-1_134_94)"/>
<path d="M16 15.7111L16 9.78519" stroke="white" stroke-width="4.26667" stroke-linecap="round"/>
<rect x="1" y="1" width="30" height="30" rx="2" stroke="white" stroke-width="2"/>
</svg>
