<svg width="12" height="17" viewBox="0 0 12 17" fill="none" xmlns="http://www.w3.org/2000/svg">
<rect x="0.5" y="3.27783" width="8.62405" height="13.2222" rx="0.642856" stroke="white"/>
<path d="M9.32314 15.2222H10.2857C10.9169 15.2222 11.4286 14.7105 11.4286 14.0794V2.14286C11.4286 1.51167 10.9169 1 10.2857 1H6.31578H2.94736C2.31618 1 1.8045 1.51167 1.8045 2.14286V3.10503" stroke="white"/>
<path d="M3.10949 11.4286C3.0394 11.4286 2.97844 11.4027 2.92663 11.3509C2.87787 11.2991 2.85349 11.2381 2.85349 11.168V8.35202C2.85349 8.28192 2.87787 8.22097 2.92663 8.16916C2.97844 8.11735 3.0394 8.09145 3.10949 8.09145H3.44778C3.51787 8.09145 3.5773 8.11735 3.62606 8.16916C3.67787 8.22097 3.70378 8.28192 3.70378 8.35202V11.168C3.70378 11.2381 3.67787 11.2991 3.62606 11.3509C3.5773 11.4027 3.51787 11.4286 3.44778 11.4286H3.10949ZM5.22681 8.7223V10.7977C5.22681 10.8252 5.24053 10.8419 5.26796 10.848C5.32891 10.8602 5.40205 10.8663 5.48738 10.8663C5.79519 10.8663 6.02224 10.7764 6.16853 10.5966C6.31786 10.4168 6.39253 10.1227 6.39253 9.7143C6.39253 9.34859 6.31786 9.0804 6.16853 8.90973C6.01919 8.73907 5.79215 8.65373 5.48738 8.65373C5.40205 8.65373 5.32891 8.65983 5.26796 8.67202C5.24053 8.67811 5.22681 8.69487 5.22681 8.7223ZM4.72396 11.4377C4.65081 11.4316 4.58986 11.4012 4.5411 11.3463C4.49234 11.2884 4.46796 11.2214 4.46796 11.1452V8.37487C4.46796 8.29868 4.49234 8.23316 4.5411 8.1783C4.58986 8.1204 4.65081 8.0884 4.72396 8.0823C4.96167 8.05792 5.19634 8.04573 5.42796 8.04573C5.97348 8.04573 6.39405 8.19049 6.68967 8.48002C6.98529 8.76954 7.1331 9.18097 7.1331 9.7143C7.1331 10.2934 6.98529 10.7322 6.68967 11.0309C6.39405 11.3265 5.97348 11.4743 5.42796 11.4743C5.19634 11.4743 4.96167 11.4621 4.72396 11.4377Z" fill="white"/>
</svg>
