<svg width="136" height="136" viewBox="0 0 136 136" fill="none" xmlns="http://www.w3.org/2000/svg">
<path d="M71.2325 19.5128C73.7795 16.9658 76.8868 15.029 80.3771 13.813C83.8673 12.5971 87.6721 12.1257 91.5742 12.4259C95.4764 12.726 99.3994 13.7919 103.119 15.5624C106.839 17.333 110.283 19.7738 113.255 22.7452C116.226 25.7167 118.667 29.1607 120.438 32.8807C122.208 36.6007 123.274 40.5237 123.574 44.4259C123.874 48.328 123.403 52.1328 122.187 55.623C120.971 59.1133 119.034 62.2206 116.487 64.7675L109.699 57.9793C111.482 56.1964 112.838 54.0213 113.689 51.5782C114.54 49.135 114.87 46.4716 114.66 43.7401C114.45 41.0086 113.704 38.2625 112.464 35.6585C111.225 33.0546 109.516 30.6437 107.436 28.5637C105.356 26.4837 102.946 24.7752 100.342 23.5358C97.7376 22.2963 94.9914 21.5503 92.2599 21.3402C89.5285 21.1301 86.8651 21.46 84.4219 22.3112C81.9788 23.1624 79.8036 24.5181 78.0208 26.301L71.2325 19.5128Z" fill="white"/>
<path d="M55.2317 42.3017C53.3572 40.4272 53.3572 37.388 55.2317 35.5135L71.2325 19.5127L78.0207 26.3009L62.0199 42.3017C60.1454 44.1762 57.1062 44.1762 55.2317 42.3017V42.3017Z" fill="white"/>
<path d="M93.6984 80.7684C91.8238 78.8939 91.8238 75.8547 93.6984 73.9802L109.699 57.9793L116.487 64.7676L100.487 80.7684C98.6121 82.6429 95.5729 82.6429 93.6984 80.7684V80.7684Z" fill="white"/>
<path d="M64.7675 116.487C62.2205 119.034 59.1132 120.971 55.6229 122.187C52.1327 123.403 48.3279 123.874 44.4258 123.574C40.5236 123.274 36.6006 122.208 32.8806 120.438C29.1606 118.667 25.7166 116.226 22.7451 113.255C19.7737 110.283 17.333 106.839 15.5624 103.119C13.7918 99.3993 12.726 95.4763 12.4258 91.5741C12.1256 87.672 12.597 83.8672 13.813 80.377C15.0289 76.8867 16.9657 73.7794 19.5127 71.2324L26.3009 78.0207C24.518 79.8036 23.1623 81.9787 22.3111 84.4218C21.4599 86.865 21.13 89.5284 21.3401 92.2599C21.5502 94.9913 22.2963 97.7375 23.5357 100.341C24.7751 102.945 26.4836 105.356 28.5636 107.436C30.6436 109.516 33.0545 111.225 35.6585 112.464C38.2624 113.704 41.0086 114.45 43.7401 114.66C46.4715 114.87 49.1349 114.54 51.5781 113.689C54.0212 112.838 56.1964 111.482 57.9792 109.699L64.7675 116.487Z" fill="white"/>
<path d="M19.5127 71.2325L35.5135 55.2317C37.388 53.3572 40.4272 53.3572 42.3017 55.2317V55.2317C44.1762 57.1062 44.1762 60.1454 42.3017 62.0199L26.3009 78.0208L19.5127 71.2325Z" fill="white"/>
<path d="M57.9794 109.699L73.9802 93.6984C75.8547 91.8239 78.8939 91.8239 80.7684 93.6984V93.6984C82.6429 95.5729 82.6429 98.6121 80.7684 100.487L64.7676 116.487L57.9794 109.699Z" fill="white"/>
<rect x="45.3726" y="84.1625" width="54.8571" height="9.14286" rx="4.57143" transform="rotate(-45 45.3726 84.1625)" fill="white"/>
</svg>
