<svg width="17" height="16" viewBox="0 0 17 16" fill="none" xmlns="http://www.w3.org/2000/svg">
<path d="M9.93023 6.92816V2.75497C9.93023 1.69075 8.6709 1.12815 7.87823 1.83825L2.02332 7.08328C1.47726 7.57245 1.47726 8.42755 2.02332 8.91672L7.87824 14.1618C8.6709 14.8719 9.93023 14.3092 9.93023 13.245V9.23756" stroke="white" stroke-width="1.23077"/>
<mask id="path-2-inside-1_149_72" fill="white">
<path d="M9.55814 7.00421C9.55814 6.32447 10.1092 5.77344 10.7889 5.77344H15.7692C16.449 5.77344 17 6.32447 17 7.00421V9.16147C17 9.84121 16.449 10.3922 15.7692 10.3922H10.7889C10.1092 10.3922 9.55814 9.84121 9.55814 9.16147V7.00421Z"/>
</mask>
<path d="M9.55814 7.00421C9.55814 5.64474 10.6602 4.54267 12.0197 4.54267H15.7692C17.1287 4.54267 18.2308 5.64474 18.2308 7.00421H15.7692H10.7889C10.1092 7.00421 9.55814 7.00421 9.55814 7.00421ZM18.2308 9.16147C18.2308 10.5209 17.1287 11.623 15.7692 11.623H12.0197C10.6602 11.623 9.55814 10.5209 9.55814 9.16147C9.55814 9.16147 10.1092 9.16147 10.7889 9.16147H15.7692H18.2308ZM9.55814 10.3922V5.77344V10.3922ZM15.7692 4.54267C17.1287 4.54267 18.2308 5.64474 18.2308 7.00421V9.16147C18.2308 10.5209 17.1287 11.623 15.7692 11.623V9.16147V7.00421V4.54267Z" fill="white" mask="url(#path-2-inside-1_149_72)"/>
</svg>
