<svg width="22" height="24" viewBox="0 0 22 24" fill="none" xmlns="http://www.w3.org/2000/svg">
<path d="M10.1246 2.38518C10.505 1.69642 11.495 1.69641 11.8754 2.38518L19.7071 16.5666C20.0751 17.2331 19.593 18.05 18.8317 18.05H3.16833C2.40696 18.05 1.92488 17.2331 2.29294 16.5666L10.1246 2.38518Z" fill="#A03B3B"/>
<path d="M10.8855 12.7638C10.7895 12.7638 10.7075 12.7318 10.6395 12.6678C10.5755 12.5998 10.5395 12.5178 10.5315 12.4218L10.4115 10.1058C10.4075 10.0138 10.4375 9.9338 10.5015 9.8658C10.5655 9.7978 10.6435 9.7638 10.7355 9.7638H11.2755C11.3675 9.7638 11.4455 9.7978 11.5095 9.8658C11.5775 9.9338 11.6075 10.0138 11.5995 10.1058L11.4855 12.4218C11.4815 12.5178 11.4435 12.5998 11.3715 12.6678C11.3035 12.7318 11.2215 12.7638 11.1255 12.7638H10.8855ZM11.1855 13.2438C11.2775 13.2438 11.3575 13.2778 11.4255 13.3458C11.4935 13.4138 11.5275 13.4938 11.5275 13.5858V13.8018C11.5275 13.8938 11.4935 13.9738 11.4255 14.0418C11.3575 14.1098 11.2775 14.1438 11.1855 14.1438H10.8255C10.7335 14.1438 10.6535 14.1098 10.5855 14.0418C10.5175 13.9738 10.4835 13.8938 10.4835 13.8018V13.5858C10.4835 13.4938 10.5175 13.4138 10.5855 13.3458C10.6535 13.2778 10.7335 13.2438 10.8255 13.2438H11.1855Z" fill="#D9D9D9"/>
</svg>
